<?xml version="1.0" standalone="no"?>
<!DOCTYPE svg PUBLIC "-//W3C//DTD SVG 20010904//EN"
 "http://www.w3.org/TR/2001/REC-SVG-20010904/DTD/svg10.dtd">
<svg version="1.0" xmlns="http://www.w3.org/2000/svg"
 width="223.000000pt" height="226.000000pt" viewBox="0 0 223.000000 226.000000"
 preserveAspectRatio="xMidYMid meet">
<metadata>
Created by potrace 1.10, written by Peter Selinger 2001-2011
</metadata>
<g transform="translate(0.000000,226.000000) scale(0.050000,-0.050000)"
fill="#000000" stroke="none">
<path d="M1088 4355 c-750 -381 -1078 -554 -1084 -572 -9 -29 147 -40 765 -53
308 -7 561 -14 564 -16 2 -2 -15 -91 -38 -197 -45 -213 -11 -166 -392 -540
-204 -200 -242 -353 -248 -1007 -9 -992 277 -1487 995 -1718 1568 -504 2939
922 2358 2453 -90 237 -477 735 -571 735 -16 0 -56 84 -86 177 -13 42 -10 43
206 43 l220 0 151 173 c175 199 170 186 92 264 -231 231 -1550 315 -1606 102
-15 -56 -54 -48 -54 11 0 276 1463 206 1723 -83 32 -35 28 -60 -58 -421 -106
-440 -104 -467 33 -508 110 -33 247 17 282 102 22 54 -114 615 -181 742 -13
23 23 77 141 210 87 98 156 187 153 198 -4 13 -338 25 -915 33 -499 7 -1184
18 -1520 23 l-613 11 -317 -162z m2043 -886 c936 -241 1270 -1672 600 -2563
-346 -460 -896 -706 -1521 -680 -942 39 -1464 554 -1504 1484 l-10 240 59 -90
c196 -303 489 -296 793 19 512 531 331 1365 -282 1296 l-89 -10 47 49 c134
144 557 150 644 9 9 -14 48 4 106 49 292 223 754 301 1157 197z m-1596 -406
c355 -182 346 -744 -18 -1134 -391 -417 -768 -259 -793 334 -25 598 395 1012
811 800z"/>
<path d="M2284 3182 c-381 -131 -501 -602 -272 -1060 464 -928 1556 -250 1111
689 -147 309 -530 478 -839 371z m320 -44 c623 -133 784 -1048 237 -1346 -392
-213 -881 230 -881 799 0 400 267 627 644 547z"/>
<path d="M2385 2517 c-35 -35 -31 -108 6 -146 74 -73 192 5 157 105 -21 61
-119 85 -163 41z"/>
<path d="M2700 1178 c-314 -112 -852 -129 -1215 -38 -215 54 -237 46 -144 -53
287 -300 1132 -317 1424 -27 151 150 130 187 -65 118z m12 -96 c-187 -207
-1012 -220 -1252 -20 -41 34 -43 39 -10 28 236 -82 826 -89 1110 -14 193 51
192 51 152 6z"/>
<path d="M1352 2477 c-42 -60 -40 -83 6 -126 83 -74 205 11 156 109 -34 68
-120 77 -162 17z"/>
</g>
</svg>
